<?xml version="1.0" encoding="UTF-8" standalone="no"?>
<!-- Uploaded to: SVG Repo, www.svgrepo.com, Generator: SVG Repo Mixer Tools -->

<svg
   width="256"
   height="256"
   viewBox="0 0 7.68 7.68"
   fill="none"
   version="1.1"
   id="svg1"
   sodipodi:docname="discord.svg"
   inkscape:version="1.3.2 (091e20ef0f, 2023-11-25)"
   xmlns:inkscape="http://www.inkscape.org/namespaces/inkscape"
   xmlns:sodipodi="http://sodipodi.sourceforge.net/DTD/sodipodi-0.dtd"
   xmlns="http://www.w3.org/2000/svg"
   xmlns:svg="http://www.w3.org/2000/svg">
  <defs
     id="defs1" />
  <sodipodi:namedview
     id="namedview1"
     pagecolor="#ffffff"
     bordercolor="#111111"
     borderopacity="1"
     inkscape:showpageshadow="0"
     inkscape:pageopacity="0"
     inkscape:pagecheckerboard="1"
     inkscape:deskcolor="#d1d1d1"
     inkscape:zoom="2.0375"
     inkscape:cx="48.588957"
     inkscape:cy="180.8589"
     inkscape:window-width="1920"
     inkscape:window-height="1015"
     inkscape:window-x="1920"
     inkscape:window-y="0"
     inkscape:window-maximized="1"
     inkscape:current-layer="svg1" />
  <g
     id="g1"
     transform="translate(7.7637167e-8,-0.04830553)"
     style="fill:#ffffff;fill-opacity:1">
    <path
       d="M 6.5003704,1.4216225 C 6.0033987,1.1913185 5.4741035,1.0216208 4.9165253,0.92465071 4.8478382,1.0458634 4.7670298,1.2115206 4.7145043,1.3448545 c -0.5899015,-0.088889 -1.1757627,-0.088889 -1.7535388,0 C 2.9043996,1.2115206 2.8235912,1.0458634 2.754904,0.92465071 2.197326,1.0216208 1.6680307,1.1913185 1.171059,1.4216225 0.16903463,2.93274 -0.10167359,4.4075059 0.03166031,5.8580169 0.69832977,6.3549887 1.3407566,6.6539798 1.9751027,6.8519605 2.1326792,6.6378182 2.2700535,6.4075142 2.3912662,6.1691294 2.1609621,6.0842806 1.9427794,5.9751891 1.736718,5.8499362 1.793284,5.8095322 1.8458093,5.7650872 1.8983348,5.724683 c 1.2646478,0.5899015 2.6343505,0.5899015 3.8828407,0 0.052525,0.044445 0.1050509,0.084849 0.1616168,0.1252531 C 5.7367309,5.9751891 5.5145077,6.0802401 5.2882441,6.1691294 5.4094568,6.4075142 5.5468311,6.6378182 5.7044075,6.8519605 6.3387536,6.6539798 6.985221,6.3549887 7.6478501,5.8580169 7.8054264,4.1731615 7.3771418,2.7145572 6.5084513,1.4216225 Z M 2.5609638,4.9691243 c -0.3797996,0 -0.6909119,-0.3515167 -0.6909119,-0.7838417 0,-0.4323251 0.3030315,-0.7838416 0.6909119,-0.7838416 0.3878804,0 0.6949484,0.3515165 0.690908,0.7838416 0,0.4282846 -0.3030276,0.7838417 -0.690908,0.7838417 z m 2.5495018,0 c -0.3797996,0 -0.690912,-0.3515167 -0.690912,-0.7838417 0,-0.4323251 0.3030315,-0.7838416 0.690912,-0.7838416 0.3878804,0 0.6949524,0.3515165 0.690912,0.7838416 0,0.4282846 -0.3030316,0.7838417 -0.690912,0.7838417 z"
       fill="#000000"
       id="path1"
       style="fill:#ffffff;fill-opacity:1;stroke-width:0.404043" />
  </g>
</svg>
