<?xml version="1.0" encoding="UTF-8" standalone="no"?>
<!-- Uploaded to: SVG Repo, www.svgrepo.com, Transformed by: SVG Repo Mixer Tools -->

<svg
   fill="#ffffff"
   width="800px"
   height="800px"
   viewBox="0 0 24 24"
   role="img"
   stroke="#ffffff"
   version="1.1"
   id="svg7"
   sodipodi:docname="gamejolt.svg"
   inkscape:version="1.2.2 (b0a8486541, 2022-12-01)"
   xmlns:inkscape="http://www.inkscape.org/namespaces/inkscape"
   xmlns:sodipodi="http://sodipodi.sourceforge.net/DTD/sodipodi-0.dtd"
   xmlns="http://www.w3.org/2000/svg"
   xmlns:svg="http://www.w3.org/2000/svg">
  <defs
     id="defs11" />
  <sodipodi:namedview
     id="namedview9"
     pagecolor="#ffffff"
     bordercolor="#111111"
     borderopacity="1"
     inkscape:showpageshadow="0"
     inkscape:pageopacity="0"
     inkscape:pagecheckerboard="1"
     inkscape:deskcolor="#d1d1d1"
     showgrid="false"
     inkscape:zoom="0.59131805"
     inkscape:cx="399.1084"
     inkscape:cy="360.21224"
     inkscape:window-width="1600"
     inkscape:window-height="835"
     inkscape:window-x="0"
     inkscape:window-y="0"
     inkscape:window-maximized="1"
     inkscape:current-layer="svg7" />
  <g
     id="SVGRepo_bgCarrier"
     stroke-width="0" />
  <g
     id="SVGRepo_tracerCarrier"
     stroke-linecap="round"
     stroke-linejoin="round" />
  <g
     id="SVGRepo_iconCarrier"
     transform="matrix(0.94382658,0,0,0.94382658,0.67408105,0.67408105)">
    <path
       d="M 6.353,0 V 2.824 H 4.94 V 5.647 H 3.53 V 8.471 H 2.118 v 2.823 H 0.706 v 2.824 h 8.47 v 2.823 H 7.765 v 2.824 H 6.353 v 2.823 h 1.412 v -1.412 h 1.411 v -1.411 h 1.412 V 18.353 H 12 V 16.94 h 1.412 v -1.41 h 1.412 v -1.411 h 1.411 v -1.412 h 1.412 v -1.412 h 1.412 V 9.882 h 1.412 V 8.471 h 1.411 V 7.059 H 17.647 V 5.647 h 1.412 V 4.235 h 1.412 V 2.824 h 1.411 V 1.412 h 1.412 V 0 Z m 0,22.588 H 4.94 V 24 H 6.352 Z M 7.765,2.824 h 9.882 V 4.235 H 16.235 V 5.647 H 14.824 V 7.06 H 13.412 V 8.47 H 12 v 1.411 h 1.412 v 1.412 H 12 V 9.882 h -1.412 v 1.412 H 9.176 V 9.882 H 7.765 v 1.412 H 6.353 V 9.882 H 4.94 V 8.471 H 6.352 V 5.647 H 7.764 Z M 6.353,8.47 v 1.411 h 1.412 v -1.41 z m 2.823,1.411 h 1.412 V 8.471 H 9.176 Z m 5.648,0 h 1.411 v 1.412 h -1.411 z"
       id="path4" />
  </g>
</svg>
