<?xml version="1.0" encoding="UTF-8" standalone="no"?>
<!-- Uploaded to: SVG Repo, www.svgrepo.com, Transformed by: SVG Repo Mixer Tools -->

<svg
   width="256px"
   height="256px"
   viewBox="0 0 192 192"
   fill="none"
   version="1.1"
   id="svg11"
   sodipodi:docname="instagram.svg"
   inkscape:version="1.2.2 (b0a8486541, 2022-12-01)"
   xmlns:inkscape="http://www.inkscape.org/namespaces/inkscape"
   xmlns:sodipodi="http://sodipodi.sourceforge.net/DTD/sodipodi-0.dtd"
   xmlns="http://www.w3.org/2000/svg"
   xmlns:svg="http://www.w3.org/2000/svg">
  <defs
     id="defs15" />
  <sodipodi:namedview
     id="namedview13"
     pagecolor="#ffffff"
     bordercolor="#111111"
     borderopacity="1"
     inkscape:showpageshadow="0"
     inkscape:pageopacity="0"
     inkscape:pagecheckerboard="1"
     inkscape:deskcolor="#d1d1d1"
     showgrid="false"
     inkscape:zoom="1.3066406"
     inkscape:cx="94.134529"
     inkscape:cy="156.12556"
     inkscape:window-width="1600"
     inkscape:window-height="835"
     inkscape:window-x="0"
     inkscape:window-y="0"
     inkscape:window-maximized="1"
     inkscape:current-layer="svg11" />
  <g
     id="SVGRepo_bgCarrier"
     stroke-width="0"
     transform="matrix(1.3116747,0,0,1.3116747,-29.920773,-29.920773)" />
  <g
     id="SVGRepo_tracerCarrier"
     stroke-linecap="round"
     stroke-linejoin="round"
     transform="matrix(1.3116747,0,0,1.3116747,-29.920773,-29.920773)" />
  <g
     id="SVGRepo_iconCarrier"
     transform="matrix(1.3116747,0,0,1.3116747,-29.920773,-29.920773)">
    <path
       stroke="#ffffff"
       stroke-width="12"
       d="M 96,162 C 81.848,162 71.664,161.993 63.724,161.223 55.875,160.462 50.854,159 46.847,156.482 A 36,36 0 0 1 35.517,145.153 C 33,141.146 31.537,136.125 30.777,128.276 30.007,120.336 30,110.152 30,96 30,81.848 30.007,71.664 30.777,63.724 31.537,55.875 33,50.854 35.517,46.847 a 36,36 0 0 1 11.33,-11.33 C 50.854,33 55.875,31.537 63.724,30.777 71.663,30.007 81.847,30 96,30 c 14.152,0 24.336,0.007 32.276,0.777 7.849,0.76 12.87,2.223 16.877,4.74 a 36,36 0 0 1 11.329,11.33 c 2.518,4.007 3.98,9.028 4.741,16.877 0.77,7.94 0.777,18.124 0.777,32.276 0,14.152 -0.007,24.336 -0.777,32.276 -0.761,7.849 -2.223,12.87 -4.741,16.877 a 36,36 0 0 1 -11.329,11.329 c -4.007,2.518 -9.028,3.98 -16.877,4.741 C 120.336,161.993 110.152,162 96,162 Z"
       id="path4" />
    <circle
       cx="96"
       cy="96"
       r="30"
       stroke="#ffffff"
       stroke-width="12"
       id="circle6" />
    <circle
       cx="135"
       cy="57"
       r="9"
       fill="#ffffff"
       id="circle8" />
  </g>
</svg>
