<?xml version="1.0" encoding="UTF-8" standalone="no"?>
<!-- Uploaded to: SVG Repo, www.svgrepo.com, Transformed by: SVG Repo Mixer Tools -->

<svg
   width="256px"
   height="256px"
   viewBox="0 0 24.00 24.00"
   fill="none"
   stroke="#000000"
   stroke-width="0.00024000000000000003"
   version="1.1"
   id="svg1"
   sodipodi:docname="linkedin.svg"
   inkscape:version="1.4.2 (f4327f4, 2025-05-13)"
   xmlns:inkscape="http://www.inkscape.org/namespaces/inkscape"
   xmlns:sodipodi="http://sodipodi.sourceforge.net/DTD/sodipodi-0.dtd"
   xmlns="http://www.w3.org/2000/svg"
   xmlns:svg="http://www.w3.org/2000/svg">
  <defs
     id="defs1" />
  <sodipodi:namedview
     id="namedview1"
     pagecolor="#ffffff"
     bordercolor="#000000"
     borderopacity="0.25"
     inkscape:showpageshadow="2"
     inkscape:pageopacity="0.0"
     inkscape:pagecheckerboard="0"
     inkscape:deskcolor="#d1d1d1"
     inkscape:zoom="3.25"
     inkscape:cx="128"
     inkscape:cy="128"
     inkscape:window-width="1920"
     inkscape:window-height="1027"
     inkscape:window-x="-8"
     inkscape:window-y="-8"
     inkscape:window-maximized="1"
     inkscape:current-layer="svg1" />
  <g
     id="SVGRepo_iconCarrier"
     transform="matrix(1.2956416,0,0,1.2956416,-3.5477531,-3.5474823)"
     style="stroke:none;fill:#ffffff;fill-opacity:1">
    <path
       d="M 18.72,3.99997 H 5.37 C 5.19793,3.99191 5.02595,4.01786 4.86392,4.07635 4.70189,4.13484 4.55299,4.22471 4.42573,4.34081 4.29848,4.45692 4.19537,4.59699 4.12232,4.75299 4.04927,4.909 4.0077,5.07788 4,5.24997 V 18.63 c 0.01008,0.3601 0.15766,0.7028 0.41243,0.9575 C 4.6672,19.8423 5.00984,19.9899 5.37,20 h 13.35 c 0.3501,-0.0156 0.6802,-0.1678 0.9195,-0.4239 C 19.8788,19.32 20.0082,18.9804 20,18.63 V 5.24997 C 20.0029,5.08247 19.9715,4.91616 19.9078,4.76122 19.8441,4.60629 19.7494,4.466 19.6295,4.34895 19.5097,4.23191 19.3672,4.14059 19.2108,4.08058 19.0544,4.02057 18.8874,3.99314 18.72,3.99997 Z M 9,17.34 H 6.67 V 10.21 H 9 Z M 7.89,9.12997 C 7.72741,9.13564 7.5654,9.10762 7.41416,9.04768 7.26291,8.98774 7.12569,8.89717 7.01113,8.78166 6.89656,8.66615 6.80711,8.5282 6.74841,8.37647 6.6897,8.22474 6.66301,8.06251 6.67,7.89997 6.66281,7.73567 6.69004,7.57169 6.74995,7.41854 6.80986,7.26538 6.90112,7.12644 7.01787,7.01063 7.13463,6.89481 7.2743,6.80468 7.42793,6.74602 7.58157,6.68735 7.74577,6.66145 7.91,6.66997 8.07259,6.66431 8.2346,6.69232 8.38584,6.75226 8.53709,6.8122 8.67431,6.90277 8.78887,7.01828 8.90344,7.13379 8.99289,7.27174 9.05159,7.42347 9.1103,7.5752 9.13699,7.73743 9.13,7.89997 9.13719,8.06427 9.10996,8.22825 9.05005,8.3814 8.99014,8.53456 8.89888,8.6735 8.78213,8.78931 8.66537,8.90513 8.5257,8.99526 8.37207,9.05392 8.21843,9.11259 8.05423,9.13849 7.89,9.12997 Z M 17.34,17.34 H 15 v -3.9 c 0,-0.93 -0.33,-1.57 -1.16,-1.57 -0.2578,0.0022 -0.5087,0.0841 -0.7181,0.2345 -0.2095,0.1504 -0.3673,0.3619 -0.4519,0.6055 -0.065,0.1826 -0.0922,0.3765 -0.08,0.57 v 4.06 h -2.3 v -7.13 h 2.3 v 1 c 0.2045,-0.3757 0.5088,-0.6875 0.8794,-0.9011 0.3706,-0.2135 0.793,-0.32042 1.2206,-0.30893 1.51,0 2.65,1.00003 2.65,3.13003 z"
       fill="#ffffff"
       id="path1"
       style="stroke:none;fill:#ffffff;fill-opacity:1" />
  </g>
</svg>
