<?xml version="1.0" encoding="UTF-8" standalone="no"?>
<!-- Uploaded to: SVG Repo, www.svgrepo.com, Generator: SVG Repo Mixer Tools -->

<svg
   fill="#000000"
   width="256"
   height="256"
   viewBox="0 0 10.24 10.24"
   version="1.1"
   id="svg1"
   sodipodi:docname="steam.svg"
   inkscape:version="1.4 (e7c3feb100, 2024-10-09)"
   xmlns:inkscape="http://www.inkscape.org/namespaces/inkscape"
   xmlns:sodipodi="http://sodipodi.sourceforge.net/DTD/sodipodi-0.dtd"
   xmlns="http://www.w3.org/2000/svg"
   xmlns:svg="http://www.w3.org/2000/svg"
   xmlns:rdf="http://www.w3.org/1999/02/22-rdf-syntax-ns#"
   xmlns:cc="http://creativecommons.org/ns#"
   xmlns:dc="http://purl.org/dc/elements/1.1/">
  <defs
     id="defs1" />
  <sodipodi:namedview
     id="namedview1"
     pagecolor="#505050"
     bordercolor="#ffffff"
     borderopacity="1"
     inkscape:showpageshadow="0"
     inkscape:pageopacity="0"
     inkscape:pagecheckerboard="1"
     inkscape:deskcolor="#505050"
     inkscape:zoom="2.8390337"
     inkscape:cx="126.45147"
     inkscape:cy="167.8388"
     inkscape:window-width="1920"
     inkscape:window-height="1011"
     inkscape:window-x="0"
     inkscape:window-y="0"
     inkscape:window-maximized="1"
     inkscape:current-layer="svg1" />
  <title
     id="title1">steam</title>
  <path
     d="m 5.7937734,3.8892046 c 0,0 0,0 0,-3.205e-4 0,-0.5012041 0.4063471,-0.9072307 0.9072307,-0.9072307 0.5008837,0 0.9072307,0.4063471 0.9072307,0.9072307 0,0.5012041 -0.4060266,0.9072307 -0.9072307,0.9072307 0,0 0,0 -3.205e-4,0 v 0 c 0,0 0,0 -3.204e-4,0 -0.5008837,0 -0.9069102,-0.4060266 -0.9069102,-0.9069102 0,0 0,0 0,-3.205e-4 v 0 z m 2.1115306,0.00192 c 0,-0.6668835 -0.5406211,-1.2075045 -1.2075045,-1.2075045 -0.6668834,0 -1.2075045,0.540621 -1.2075045,1.2075045 0,0.6668834 0.5406211,1.2075045 1.2075045,1.2075045 v 0 C 7.3643624,5.0976704 7.9043425,4.5576902 7.905304,3.8914478 v 0 z M 3.3342201,7.6165094 2.7442477,7.3723166 c 0.1679227,0.3454591 0.5162658,0.579397 0.9190879,0.579397 0.4220497,0 0.7844933,-0.2566907 0.9389565,-0.6226595 l 0.00257,-0.00673 c 0.049672,-0.1160076 0.078834,-0.2512429 0.078834,-0.3928875 0,-0.5630535 -0.4563393,-1.0193928 -1.0193928,-1.0193928 -0.1297875,0 -0.2538066,0.024356 -0.3678914,0.068259 l 0.00705,-0.00224 0.6098411,0.2522044 c 0.2730345,0.1166485 0.4611462,0.3832737 0.4611462,0.6934819 0,0.4153199 -0.3368066,0.7521265 -0.7521266,0.7521265 -0.10383,0 -0.2025326,-0.021151 -0.2925827,-0.058965 l 0.00481,0.00192 z M 5.1118282,0.32405392 C 2.5939506,0.32437438 0.52888717,2.2615731 0.32475226,4.7265743 l -0.001282,0.017305 2.57588144,1.064578 C 3.1134211,5.6604034 3.378444,5.5722761 3.6642969,5.5722761 c 3.205e-4,0 6.41e-4,0 6.41e-4,0 v 0 c 0.025317,0 0.049993,0.0016 0.075309,0.00257 L 4.8859018,3.9161234 V 3.8924096 C 4.8868667,2.8925652 5.6976345,2.0824348 6.697479,2.0824348 c 1.0004854,0 1.8115772,0.8110917 1.8115772,1.8115772 0,1.0004853 -0.8110918,1.8115772 -1.8115772,1.8115772 H 6.6554983 L 5.02306,6.871433 c 0,0.02083 0.0016,0.041981 0.0016,0.063772 0,3.205e-4 0,6.409e-4 0,9.649e-4 0,0.7505243 -0.6085591,1.3590835 -1.3590834,1.3590835 -0.6559877,0 -1.2036589,-0.4649917 -1.3308828,-1.0831648 l -0.0016,-0.00866 -1.8442645,-0.7636632 c 0.5899723,2.0333375 2.4358391,3.4946487 4.6226784,3.4946487 2.6537539,0 4.8050219,-2.151268 4.8050219,-4.8050219 0,-2.6537538 -2.151268,-4.80502182 -4.8050219,-4.80502182 0,0 -3.204e-4,0 -3.204e-4,0 v 0 z"
     id="path1"
     style="fill:#ffffff;fill-opacity:1;stroke-width:0.320463" />
  <metadata
     id="metadata1">
    <rdf:RDF>
      <cc:Work
         rdf:about="">
        <dc:title>steam</dc:title>
      </cc:Work>
    </rdf:RDF>
  </metadata>
</svg>
