<?xml version="1.0" encoding="UTF-8" standalone="no"?>
<!-- Uploaded to: SVG Repo, www.svgrepo.com, Transformed by: SVG Repo Mixer Tools -->

<svg
   width="256px"
   height="256px"
   viewBox="0 0 24 24"
   fill="none"
   version="1.1"
   id="svg7"
   sodipodi:docname="tiktok.svg"
   inkscape:version="1.2.2 (b0a8486541, 2022-12-01)"
   xmlns:inkscape="http://www.inkscape.org/namespaces/inkscape"
   xmlns:sodipodi="http://sodipodi.sourceforge.net/DTD/sodipodi-0.dtd"
   xmlns="http://www.w3.org/2000/svg"
   xmlns:svg="http://www.w3.org/2000/svg">
  <defs
     id="defs11" />
  <sodipodi:namedview
     id="namedview9"
     pagecolor="#ffffff"
     bordercolor="#111111"
     borderopacity="1"
     inkscape:showpageshadow="0"
     inkscape:pageopacity="0"
     inkscape:pagecheckerboard="1"
     inkscape:deskcolor="#d1d1d1"
     showgrid="false"
     inkscape:zoom="1.8478689"
     inkscape:cx="121.76189"
     inkscape:cy="132.044"
     inkscape:window-width="1600"
     inkscape:window-height="835"
     inkscape:window-x="0"
     inkscape:window-y="0"
     inkscape:window-maximized="1"
     inkscape:current-layer="SVGRepo_iconCarrier" />
  <g
     id="SVGRepo_bgCarrier"
     stroke-width="0" />
  <g
     id="SVGRepo_tracerCarrier"
     stroke-linecap="round"
     stroke-linejoin="round" />
  <g
     id="SVGRepo_iconCarrier"
     transform="matrix(1.134045,0,0,1.134045,-1.2833751,-1.6085398)">
    <path
       d="M 16.765897,5.2093979 C 16.040805,4.3781188 15.604919,3.2942 15.604919,2.1092372 h -0.908565 m 2.069543,3.1001607 c 0.660802,0.7578598 1.55552,1.3090226 2.574368,1.5248391 0.316603,0.068899 0.646955,0.1056828 0.991153,0.1056828 v 3.3986342 c -1.762139,0 -3.395895,-0.5648516 -4.726697,-1.5202003 v 6.9122483 c 0,3.453855 -2.808481,6.260161 -6.2547597,6.260161 -1.8035114,0 -3.432609,-0.771678 -4.575269,-1.997934 -1.0416952,-1.120624 -1.6795702,-2.617986 -1.6795702,-4.262227 0,-3.403313 2.7258743,-6.1773844 6.1033819,-6.2508729 m 7.567393,-4.1703312 c -0.0176,-0.011513 -0.03521,-0.023135 -0.05271,-0.034875 M 7.0371449,17.29324 C 6.6975654,16.824813 6.4956454,16.250753 6.4956454,15.626052 c 0,-1.575301 1.2803296,-2.856749 2.854395,-2.856749 0.2936864,0 0.5781745,0.05044 0.8443356,0.13313 V 9.4303006 c -0.2753497,-0.036784 -0.5552484,-0.05977 -0.8443356,-0.05977 -0.050512,0 -0.4571214,0.027051 -0.5076039,0.027051 M 14.691507,2.1092372 h -2.48723 l -0.0045,13.6269988 c -0.05509,1.524859 -1.312504,2.751214 -2.8497657,2.751214 -0.9545378,0 -1.7943328,-0.473076 -2.317475,-1.189562"
       stroke="#ffffff"
       stroke-linejoin="round"
       id="path4"
       style="stroke-width:1.24962;stroke-dasharray:none" />
  </g>
</svg>
